<?xml version="1.0" standalone="no"?>
<!DOCTYPE svg PUBLIC "-//W3C//DTD SVG 20010904//EN"
 "http://www.w3.org/TR/2001/REC-SVG-20010904/DTD/svg10.dtd">
<svg version="1.0" xmlns="http://www.w3.org/2000/svg"
 width="300.000000pt" height="300.000000pt" viewBox="0 0 300.000000 300.000000"
 preserveAspectRatio="xMidYMid meet">
<metadata>
Created by potrace 1.15, written by Peter Selinger 2001-2017
</metadata>
<g transform="translate(0.000000,300.000000) scale(0.100000,-0.100000)"
fill="#000000" stroke="none">
<path d="M1203 2875 c11 -20 -11 -38 -44 -37 -18 0 -28 -2 -23 -6 13 -8 15
-44 2 -36 -5 3 -5 11 -2 17 5 8 3 8 -7 0 -16 -16 -29 -17 -29 -2 0 5 4 8 8 5
5 -3 9 1 9 9 0 13 -3 12 -18 -1 -10 -9 -16 -21 -12 -27 3 -6 1 -7 -6 -3 -6 4
-9 11 -6 16 3 5 1 11 -5 15 -6 4 -10 -5 -10 -22 0 -15 -4 -23 -8 -18 -9 13
-27 13 -39 1 -4 -5 -3 -6 4 -2 6 3 14 2 17 -3 3 -5 -3 -11 -14 -14 -11 -3 -24
-15 -28 -28 l-9 -22 -17 24 c-10 13 -16 17 -13 9 2 -8 0 -23 -5 -34 -6 -11 -6
-16 -1 -13 5 4 10 0 10 -8 0 -9 -5 -11 -11 -7 -18 13 -124 13 -132 0 -5 -7 -2
-9 9 -5 9 3 18 0 21 -9 3 -8 11 -14 18 -13 10 0 10 2 1 6 -7 2 -13 8 -13 12 0
11 62 1 79 -13 12 -9 13 -8 7 4 -4 8 0 6 9 -5 9 -11 26 -20 38 -20 15 0 22 -6
22 -19 0 -13 10 -22 28 -27 15 -4 25 -4 22 1 -3 4 2 14 11 21 13 11 14 9 9
-13 -6 -23 -4 -24 27 -20 18 3 38 12 44 20 9 13 12 13 17 -2 4 -9 3 -15 -2
-12 -13 8 -44 -31 -36 -46 3 -7 -2 -3 -13 9 -11 12 -22 19 -26 16 -10 -10 -7
-23 5 -20 6 1 14 -4 17 -12 3 -10 0 -12 -11 -8 -9 3 -19 1 -23 -5 -4 -7 -3 -8
4 -4 7 4 12 3 12 -2 0 -5 7 -9 15 -9 8 0 12 3 10 7 -2 4 7 12 20 18 25 12 39
4 27 -14 -17 -26 -129 -40 -125 -16 2 8 -4 9 -22 2 -13 -5 -27 -6 -29 -1 -7
11 4 21 18 15 7 -3 12 5 12 20 0 14 -4 22 -8 20 -5 -3 -6 -10 -3 -15 4 -5 1
-10 -4 -10 -6 -1 -17 -2 -23 -3 -7 -1 -18 1 -24 6 -12 9 -41 -18 -30 -29 3 -3
6 -1 6 4 0 6 7 10 15 9 9 -1 14 -6 13 -12 -2 -5 -6 -8 -10 -6 -5 1 -8 -2 -8
-8 0 -15 -24 -7 -31 10 -4 8 -1 22 5 30 10 13 9 13 -6 1 -10 -7 -18 -9 -18 -5
0 5 -9 15 -19 21 -16 10 -19 9 -17 -3 1 -8 5 -13 8 -12 3 2 12 -3 22 -11 23
-20 4 -38 -38 -36 -20 1 -34 -1 -31 -4 2 -4 23 -6 47 -6 24 1 49 -3 57 -9 12
-9 13 -8 6 3 -5 10 -4 12 3 7 16 -10 15 -14 -9 -27 -17 -9 -20 -8 -13 3 4 7
-3 4 -16 -7 -13 -11 -20 -15 -17 -8 4 6 4 14 -1 17 -14 9 -12 -42 3 -54 8 -7
12 -17 8 -23 -3 -6 -1 -7 5 -3 7 4 12 14 12 22 0 17 5 17 32 3 18 -10 19 -8
13 12 -6 18 -4 21 11 15 18 -6 18 -5 0 9 -11 8 -14 15 -7 15 7 0 9 5 5 12 -4
7 -3 8 5 4 6 -4 23 -1 36 8 27 18 39 21 31 7 -4 -5 2 -8 11 -7 10 2 21 -1 24
-6 3 -5 12 -10 20 -11 8 -2 20 -7 28 -11 10 -7 12 -6 6 4 -5 9 -4 11 3 6 7 -4
12 -14 12 -22 0 -8 3 -13 8 -13 18 3 33 -2 28 -9 -3 -5 6 -20 19 -34 13 -14
21 -28 18 -32 -3 -3 4 -4 15 -1 12 2 24 -1 27 -6 4 -5 11 -7 16 -3 5 3 17 0
25 -7 12 -10 13 -9 7 7 -5 15 -4 17 8 8 8 -6 35 -10 61 -9 26 1 45 -2 42 -6
-7 -12 16 -21 34 -13 27 11 42 13 42 4 0 -4 25 -7 55 -5 35 1 53 -2 52 -9 -1
-6 10 -11 26 -11 15 1 27 -2 27 -6 0 -4 15 -6 34 -5 19 1 32 -2 30 -6 -4 -7
11 -12 19 -6 1 1 12 -4 24 -10 23 -13 57 -6 47 9 -3 5 2 6 10 3 20 -8 20 -14
-1 -30 -17 -13 -17 -14 0 -8 10 4 17 1 17 -6 0 -8 8 -10 21 -7 12 3 22 0 26
-9 4 -12 8 -12 20 3 12 14 14 15 10 2 -3 -9 1 -16 8 -16 10 0 11 5 4 19 -9 16
-6 22 12 20 3 -1 6 6 6 14 0 8 -6 14 -14 14 -7 0 -13 -6 -13 -14 0 -9 -12 -13
-39 -13 -32 1 -37 4 -33 19 2 10 8 20 12 23 5 3 6 -3 3 -13 -3 -12 1 -19 11
-19 11 0 14 6 11 18 -8 23 7 31 71 35 39 3 54 1 54 -8 0 -9 4 -8 11 2 7 11 12
12 15 3 3 -7 12 -9 20 -6 9 3 14 -1 14 -13 0 -14 3 -15 12 -6 8 8 8 15 0 24
-8 11 -6 17 9 26 21 13 16 37 -6 28 -7 -2 -22 2 -33 9 -11 8 -28 13 -39 11
-11 -3 -26 0 -34 6 -11 8 -11 9 3 4 10 -3 20 0 24 6 4 6 3 8 -2 5 -6 -3 -16
-2 -24 4 -12 7 -12 9 3 9 16 0 16 2 -2 22 -26 27 -19 38 24 38 28 0 33 3 29
18 -5 14 -4 15 5 2 10 -13 15 -8 12 13 -2 13 17 7 22 -7 3 -8 18 -23 32 -32
20 -13 29 -14 38 -5 9 10 8 11 -5 6 -20 -8 -24 5 -8 21 8 8 5 15 -7 25 -16 13
-17 12 -5 -3 8 -10 9 -18 3 -23 -6 -3 -13 5 -17 19 -4 19 -11 23 -32 20 -15
-1 -42 -5 -60 -7 -31 -4 -70 -27 -46 -27 6 0 15 5 22 12 8 8 12 8 12 1 0 -16
-31 -26 -43 -14 -7 7 -14 5 -22 -6 -9 -12 -16 -13 -29 -6 -16 9 -14 11 13 23
18 7 28 17 24 24 -3 6 -3 8 2 4 4 -4 23 -1 43 7 25 11 38 12 47 5 10 -8 15 -7
21 1 4 7 3 9 -4 5 -6 -3 -14 -1 -17 5 -4 5 -13 8 -20 5 -8 -3 -16 0 -18 7 -3
9 -8 9 -18 0 -22 -21 -31 -15 -15 9 19 27 21 42 4 32 -8 -5 -7 0 2 11 14 17
13 18 -2 13 -10 -4 -19 -1 -23 10 -6 15 -9 14 -27 -8 -13 -16 -19 -18 -15 -7
5 12 1 17 -13 17 -11 0 -20 -6 -20 -12 0 -9 -4 -8 -10 2 -5 8 -10 10 -10 4 0
-7 -9 -14 -20 -17 -11 -3 -20 -2 -20 3 0 4 9 10 20 13 23 6 27 27 5 27 -13 0
-14 2 -3 14 7 8 15 10 16 5 2 -5 7 -7 12 -4 4 3 6 -5 3 -17 -5 -21 -4 -21 26
6 17 17 31 31 31 32 0 1 -13 0 -30 -2 -24 -4 -30 -2 -30 13 0 12 -3 14 -8 6
-5 -8 -12 -8 -27 3 -17 13 -18 16 -5 24 13 8 13 10 -1 10 -9 0 -19 -9 -22 -20
-3 -12 0 -20 8 -20 7 0 15 -7 19 -15 4 -12 2 -13 -13 -6 -10 6 -28 7 -41 4
-16 -4 -21 -3 -16 6 4 6 12 8 18 5 8 -5 9 -1 5 10 -5 11 -3 15 5 10 8 -5 9 -2
5 9 -3 9 -2 19 3 22 6 4 10 11 10 16 0 6 -4 8 -9 5 -4 -3 -17 2 -27 10 -10 9
-13 12 -5 8 9 -5 12 -3 7 4 -9 15 -11 15 -31 -5 -10 -10 -19 -12 -23 -6 -4 5
-18 6 -32 2 l-25 -7 28 -1 c25 -1 27 -4 22 -23 -7 -23 -7 -23 10 -3 9 11 14
15 11 8 -8 -15 10 -27 19 -13 3 5 11 10 18 10 6 0 2 -6 -8 -14 -11 -8 -23 -12
-27 -10 -5 3 -8 0 -8 -6 0 -6 -4 -8 -10 -5 -5 3 -10 -2 -10 -11 0 -16 -1 -16
-18 -1 -20 19 -37 23 -27 7 3 -5 1 -10 -4 -10 -6 0 -11 5 -11 11 0 5 -5 7 -10
4 -7 -4 -7 -11 -2 -18 5 -7 12 -20 15 -30 10 -27 -13 -10 -23 18 -7 17 -14 22
-29 18 -13 -3 -21 -1 -21 6 0 7 -6 9 -12 5 -8 -4 -10 -3 -5 2 12 12 30 12 39
-1 5 -6 8 -5 8 3 0 19 -23 24 -56 12 -25 -9 -27 -8 -12 3 10 8 15 17 11 21
-11 10 -12 36 -2 36 4 0 13 10 20 21 9 17 8 24 -4 36 -13 13 -14 12 -9 -12 3
-17 0 -30 -9 -36 -8 -4 -14 -14 -14 -21 0 -7 -6 -14 -12 -14 -7 -1 -21 -2 -30
-3 -16 -1 -16 -3 -3 -11 19 -12 33 -13 26 -2 -3 5 1 9 9 9 11 0 12 -4 4 -14
-6 -7 -8 -21 -5 -30 5 -15 4 -15 -9 1 -19 25 -82 48 -82 30 0 -7 6 -10 13 -7
6 2 15 0 19 -6 10 -17 -23 -13 -51 5 -14 10 -24 13 -23 8 3 -19 -3 -49 -8 -37
-3 10 -8 9 -20 -2 -8 -8 -20 -15 -26 -15 -7 0 -4 5 6 11 9 5 17 14 17 18 0 16
-39 19 -51 5 -6 -8 -17 -13 -23 -12 -17 3 -57 -13 -52 -21 3 -4 -4 -7 -15 -7
-11 0 -17 5 -15 11 2 5 9 9 15 8 6 -2 11 2 11 8 0 5 4 8 9 4 5 -3 12 3 15 13
5 14 13 17 38 14 23 -4 29 -2 23 8 -5 9 -4 11 3 6 7 -4 12 -1 12 9 0 11 6 15
19 10 12 -4 21 0 25 11 5 14 4 15 -9 4 -12 -10 -15 -9 -16 6 0 12 -3 14 -6 6
-4 -10 -10 -10 -30 3 -13 9 -31 14 -38 11 -13 -4 -44 22 -37 31 2 3 0 8 -4 11
-4 4 -5 2 -1 -3z"/>
<path d="M1024 2454 c7 -18 -11 -47 -25 -38 -5 3 -9 -3 -10 -13 0 -16 -1 -16
-8 2 -8 19 -8 19 -15 -3 -6 -16 -14 -22 -26 -19 -11 3 -17 -1 -16 -12 1 -9 -7
-16 -19 -17 -32 -2 -58 -16 -45 -24 8 -5 5 -9 -7 -12 -16 -4 -18 -1 -15 26 5
28 3 30 -12 17 -9 -7 -16 -10 -16 -7 0 4 -9 2 -21 -4 -19 -11 -20 -10 -9 9 6
12 17 21 25 21 7 0 17 6 21 13 4 6 4 9 0 5 -4 -3 -20 -2 -36 2 -22 6 -30 5
-35 -7 -3 -9 -8 -13 -12 -10 -8 8 -33 -12 -33 -25 0 -7 5 -6 13 1 10 8 14 7
14 -4 0 -7 -5 -13 -11 -12 -5 1 -12 -7 -14 -18 -2 -11 -11 -24 -19 -29 -12 -6
-12 -10 -3 -16 7 -4 13 -21 13 -38 1 -21 5 -28 13 -22 6 6 15 5 22 -2 15 -15
16 -42 2 -33 -6 4 -8 10 -5 15 3 5 1 11 -5 15 -5 3 -10 3 -11 -2 0 -4 -2 -33
-4 -63 -3 -60 -7 -79 -18 -97 -5 -8 -4 -13 2 -13 6 0 11 -5 11 -11 0 -5 -6 -7
-12 -3 -7 4 -5 -2 5 -13 18 -21 22 -48 8 -57 -5 -3 -7 -15 -4 -26 3 -11 9 -17
14 -14 5 3 9 -1 9 -9 0 -8 12 -35 26 -60 14 -26 27 -58 28 -73 2 -14 7 -29 12
-32 6 -4 23 -33 39 -64 16 -33 35 -58 44 -58 12 0 12 3 3 12 -17 17 -15 85 4
157 8 34 16 71 17 84 0 12 11 38 23 58 31 50 32 63 8 177 -4 17 -1 22 8 16 7
-4 10 -4 6 1 -4 4 -1 20 8 36 8 16 12 29 9 29 -3 0 1 14 10 30 9 17 13 30 9
30 -4 0 -1 7 6 15 10 12 16 13 26 4 18 -14 19 0 1 15 -7 6 -10 10 -8 9 2 -2
11 3 19 9 19 16 44 19 35 5 -8 -14 26 11 45 33 8 8 11 10 8 3 -4 -6 -1 -15 5
-19 8 -5 10 1 7 19 -3 15 -1 24 3 21 5 -3 9 -12 9 -19 0 -12 5 -12 25 -3 27
12 29 16 16 37 -6 9 -11 10 -15 2 -4 -6 -4 -15 -1 -21 3 -5 1 -10 -6 -10 -7 0
-9 10 -7 25 3 14 1 25 -4 25 -6 0 -7 7 -4 16 4 9 2 13 -5 8 -6 -4 -15 -1 -19
6 -5 8 -9 7 -13 -4 -4 -10 -1 -16 7 -16 7 0 13 -7 13 -15 0 -13 -3 -13 -19 2
-10 9 -18 12 -18 8 0 -5 -7 0 -15 11 -14 18 -16 18 -29 1 -9 -12 -16 -14 -21
-8 -3 6 1 14 9 17 9 3 14 10 11 14 -3 5 3 7 12 5 10 -2 22 -4 26 -4 5 -1 5 -6
1 -13 -5 -7 -3 -8 5 -3 18 11 -7 34 -43 41 -24 4 -27 2 -22 -12z"/>
<path d="M2145 2230 c-3 -5 -3 -16 2 -22 11 -17 13 -88 3 -88 -5 0 -15 -21
-24 -47 -16 -46 -16 -47 9 -73 14 -15 27 -41 29 -58 3 -17 8 -37 12 -43 4 -8
3 -9 -4 -5 -7 4 -12 1 -13 -6 -2 -29 3 -85 11 -118 4 -19 11 -55 14 -80 8 -56
18 -72 38 -65 20 8 42 60 34 80 -3 9 -2 14 3 11 5 -3 14 1 21 9 7 8 19 15 26
15 8 0 14 8 14 18 0 10 5 23 12 30 9 9 9 12 1 12 -13 0 1 53 19 77 11 13 13
107 3 123 -5 8 -12 7 -23 -2 -15 -12 -16 -11 -4 4 8 10 19 16 24 15 11 -2 19
47 11 76 -2 9 -8 15 -13 12 -14 -8 -20 10 -8 25 8 12 9 12 4 -3 -3 -10 -2 -15
3 -12 6 3 9 14 8 25 -1 10 -4 17 -8 14 -4 -2 -14 2 -22 10 -10 10 -18 11 -24
5 -12 -12 -5 -49 8 -49 5 0 9 -7 9 -16 0 -14 -3 -14 -15 -4 -8 7 -15 21 -15
32 0 10 -4 17 -9 13 -23 -14 -18 16 5 34 25 20 25 21 6 21 -12 0 -26 -9 -32
-20 -6 -11 -16 -17 -25 -14 -8 4 -15 1 -15 -5 0 -6 -7 -8 -16 -4 -14 5 -16 1
-12 -19 3 -17 1 -25 -6 -22 -6 2 -12 23 -13 46 -1 22 -7 44 -14 48 -6 4 -8 13
-5 19 4 6 5 11 2 11 -3 0 -8 -4 -11 -10z"/>
<path d="M1865 1590 c-22 -4 -62 -10 -90 -13 -57 -5 -151 -51 -158 -76 -9 -34
12 -131 38 -178 45 -82 79 -113 135 -121 13 -2 29 -7 35 -12 15 -12 119 -25
113 -14 -4 5 18 9 48 9 41 1 58 6 70 20 8 11 13 14 9 8 -13 -27 19 -11 57 27
26 26 38 45 34 55 -3 9 -2 13 4 10 6 -3 10 3 10 14 0 11 5 23 11 27 6 3 9 19
7 35 -3 16 0 25 5 22 5 -3 8 0 5 7 -2 7 9 27 24 44 31 34 37 59 12 49 -12 -4
-15 -2 -12 8 3 8 10 15 16 15 23 3 24 4 12 19 -11 13 -14 13 -27 -2 -8 -10
-12 -13 -9 -7 6 12 -12 23 -53 30 -21 4 -23 3 -11 -11 8 -10 20 -13 34 -9 19
6 19 5 7 -10 -8 -9 -10 -16 -5 -14 9 3 14 -4 14 -21 0 -5 -9 -11 -20 -14 -21
-5 -28 -27 -9 -27 5 0 7 -5 3 -11 -6 -11 -14 -63 -15 -102 0 -9 -4 -15 -10
-12 -5 4 -9 -3 -9 -14 0 -25 -71 -101 -94 -101 -9 0 -15 -4 -12 -9 3 -4 -47
-7 -112 -6 -89 1 -125 5 -149 18 -18 10 -33 23 -33 29 0 6 -3 8 -7 5 -8 -8
-53 52 -53 71 0 7 -3 11 -7 9 -5 -3 -9 14 -11 36 -1 23 -3 51 -4 62 -3 39 14
75 38 81 13 3 21 10 18 15 -3 5 0 9 5 9 19 0 26 2 41 10 15 8 89 18 150 21 78
3 99 -1 103 -18 3 -11 5 -7 6 10 1 26 -1 27 -43 27 -24 0 -50 2 -58 4 -7 2
-31 0 -53 -4z"/>
<path d="M1049 1576 c8 -9 22 -12 44 -7 18 4 41 6 52 5 11 -1 38 -3 60 -4 57
-4 174 -30 181 -41 3 -5 10 -7 15 -4 5 4 9 -1 9 -9 0 -8 10 -22 23 -32 17 -13
18 -15 3 -10 -15 5 -17 3 -12 -16 11 -36 13 -77 4 -72 -4 3 -8 -4 -8 -15 0
-29 -37 -91 -73 -123 -34 -31 -74 -41 -159 -42 -32 -1 -58 -4 -58 -7 0 -4 -18
0 -41 7 -22 8 -45 12 -50 9 -5 -4 -9 -1 -9 4 0 6 -4 11 -9 11 -19 0 -58 46
-72 83 -7 20 -16 37 -19 37 -4 0 -5 30 -3 68 5 100 7 110 19 105 13 -5 37 44
24 52 -5 3 -11 1 -14 -3 -3 -5 -17 -8 -31 -7 -15 2 -29 -3 -35 -13 -5 -10 -10
-12 -10 -5 0 6 -9 9 -20 6 -11 -3 -17 -9 -14 -14 3 -5 1 -9 -5 -9 -10 0 -9
-25 2 -36 4 -4 7 2 7 13 0 26 10 35 26 22 16 -13 37 -2 28 14 -4 7 -3 8 1 4
19 -17 13 -35 -10 -32 -17 1 -27 -5 -35 -24 -6 -14 -9 -23 -5 -19 11 11 35
-18 35 -42 0 -17 4 -21 18 -16 16 6 16 5 0 -8 -10 -7 -18 -17 -18 -21 0 -4 8
-4 18 -1 15 5 15 5 1 -6 -14 -12 -14 -16 2 -42 10 -16 16 -33 13 -38 -3 -4 4
-18 15 -30 12 -12 21 -25 21 -30 0 -4 7 -8 15 -8 8 0 15 -5 15 -11 0 -6 7 -8
16 -5 8 3 13 2 10 -3 -6 -8 4 -11 84 -26 19 -3 40 -8 47 -10 7 -2 15 1 19 7 4
7 9 6 15 -3 6 -10 9 -10 9 -2 0 7 7 10 15 6 19 -7 100 15 135 36 67 40 123
135 124 212 1 26 4 45 8 43 3 -2 8 0 10 6 2 6 31 11 65 11 60 1 61 1 41 21
-22 22 -74 21 -88 -2 -8 -13 -10 -13 -10 0 -1 11 -4 10 -15 -4 -13 -17 -15
-17 -15 -3 0 20 -34 39 -120 64 -83 25 -309 31 -291 9z"/>
<path d="M1161 1538 c-47 -8 -165 -78 -143 -86 7 -2 10 -8 7 -13 -4 -5 1 -6
10 -2 10 3 21 0 26 -8 6 -9 9 -10 9 -2 0 7 -8 17 -17 23 -15 9 -14 10 7 4 14
-3 22 -3 18 1 -4 5 4 19 18 32 31 28 29 28 31 1 2 -26 37 -58 62 -58 13 0 17
8 16 33 -1 18 -7 31 -14 30 -6 -2 -11 2 -11 8 0 6 8 9 18 7 11 -3 16 -12 14
-27 -2 -21 0 -22 15 -10 15 11 16 11 6 -1 -15 -16 -17 -30 -5 -30 5 0 16 16
25 35 15 31 20 35 44 29 16 -4 30 -10 33 -14 3 -3 14 -10 25 -13 16 -6 15 -3
-5 12 -14 11 -34 22 -45 23 -11 2 -19 9 -17 16 1 8 -1 11 -6 8 -4 -2 -24 -1
-43 3 -18 4 -54 4 -78 -1z"/>
<path d="M1876 1542 c-3 -3 -22 -5 -41 -4 -34 1 -46 -10 -24 -23 6 -4 8 -13 5
-21 -3 -7 -1 -16 4 -19 6 -4 10 -1 10 6 0 7 7 4 15 -7 8 -10 14 -23 14 -29 0
-5 -4 -2 -10 8 -6 9 -15 15 -20 11 -6 -3 -2 -12 10 -20 18 -13 24 -13 48 2 24
14 26 14 9 0 -18 -14 -18 -16 -3 -16 10 0 20 7 23 15 4 8 11 12 17 8 6 -4 8 0
4 10 -3 10 -2 17 4 17 6 0 7 5 4 10 -9 15 7 12 32 -5 23 -16 35 -59 21 -73 -5
-5 -2 -9 6 -9 8 0 13 4 11 8 -3 4 6 14 20 23 23 15 35 39 18 34 -12 -4 -53 35
-47 44 3 4 -2 5 -11 2 -8 -4 -22 -1 -30 6 -17 14 -82 30 -89 22z"/>
<path d="M1382 749 c2 -8 -4 -15 -12 -15 -8 -1 -21 -2 -28 -3 -7 0 -11 -5 -8
-10 4 -5 -2 -7 -11 -5 -10 2 -29 -4 -41 -14 l-24 -19 35 2 c18 1 40 6 48 11
24 15 63 13 77 -4 11 -14 12 -14 12 2 0 16 2 17 17 5 12 -10 15 -11 9 -1 -6 9
-1 11 19 8 15 -3 32 -10 39 -15 7 -6 16 -8 19 -4 4 3 7 0 7 -8 0 -12 2 -12 10
1 6 9 5 17 -3 23 -7 4 18 6 55 4 37 -2 75 -10 85 -18 17 -13 17 -13 4 4 -12
15 -12 17 3 11 9 -3 16 -11 16 -17 0 -6 3 -7 7 -4 3 4 13 1 21 -6 13 -10 14
-9 8 1 -6 10 1 12 33 8 24 -2 39 0 35 5 -3 5 -12 9 -20 9 -8 0 -14 5 -14 10 0
6 -9 10 -20 10 -11 0 -19 5 -17 11 1 6 -4 14 -12 17 -8 2 -11 0 -7 -6 3 -5 -1
-13 -10 -16 -9 -4 -13 -2 -8 5 4 8 -1 9 -16 4 -15 -5 -20 -4 -16 3 7 11 -25 9
-44 -3 -6 -3 -10 -1 -10 6 0 8 -5 7 -17 -2 -15 -12 -16 -12 -8 1 5 10 1 8 -13
-4 -19 -17 -22 -17 -28 -3 -4 13 -10 14 -24 7 -23 -13 -33 -13 -25 -1 3 5 1
12 -4 15 -5 4 -13 1 -17 -5 -5 -8 -3 -9 6 -4 9 5 11 4 6 -4 -5 -7 -12 -9 -19
-3 -7 5 -25 7 -42 6 -16 -2 -35 2 -43 8 -10 9 -12 8 -10 -3z"/>
</g>
</svg>
